# xmcd CD database file
# Copyright (C) 1995-1998 Ti Kan
#
# Track frame offsets:
#	150
#	20775
#	38692
#	60377
#	74833
#	91319
#	110210
#	130263
#	146815
#	162672
#
# Disc length: 2396 seconds
#
# Revision: 1
# Processed by: cddbd v1.4b41PL1 Copyright (c) Steve Scherf et al.
# Submitted via: CDex 1.30Release
#
DISCID=9a095a0a
DTITLE=Jill Dawson - First Time Around
DYEAR=2000
DGENRE=Country
TTITLE0=Talk To Me
TTITLE1=She
TTITLE2=I Try and I Try
TTITLE3=Least Likely
TTITLE4=Better Be (the last time)
TTITLE5=Perfect Time
TTITLE6=Buld and Destroy
TTITLE7=Miss Perfect
TTITLE8=In the Meantime
TTITLE9=When I'm Gone
EXTD=YEAR: 2000 ID3G:   2
EXTT0=
EXTT1=
EXTT2=
EXTT3=
EXTT4=
EXTT5=
EXTT6=
EXTT7=
EXTT8=
EXTT9=
PLAYORDER=
